<svg width="135" height="26" viewBox="0 0 135 26" fill="none" xmlns="http://www.w3.org/2000/svg">
<ellipse cx="13.5034" cy="12.7904" rx="12.6284" ry="12.6" fill="#1E293B"/>
<path d="M19.1016 10.0756C18.7237 10.2432 18.3247 10.348 17.9047 10.4108C18.3247 10.1594 18.6607 9.76135 18.8077 9.27947C18.4087 9.50993 17.9677 9.67754 17.4848 9.7823C17.1068 9.38423 16.5608 9.13281 15.9729 9.13281C14.839 9.13281 13.9151 10.0547 13.9151 11.186C13.9151 11.3536 13.9361 11.5003 13.9781 11.6469C12.2772 11.5631 10.7443 10.746 9.7154 9.48898C9.54742 9.80325 9.44243 10.1385 9.44243 10.5156C9.44243 11.2279 9.7994 11.8565 10.3664 12.2336C10.0304 12.2126 9.7154 12.1288 9.42143 11.9822V12.0031C9.42143 13.0088 10.1354 13.8468 11.0803 14.0354C10.9123 14.0773 10.7233 14.0982 10.5343 14.0982C10.4083 14.0982 10.2614 14.0773 10.1354 14.0563C10.4083 14.8734 11.1643 15.481 12.0672 15.481C11.3533 16.0257 10.4713 16.3609 9.50542 16.3609C9.33744 16.3609 9.16945 16.3609 9.02246 16.34C9.94639 16.9266 11.0173 17.2618 12.1932 17.2618C15.9939 17.2618 18.0727 14.1192 18.0727 11.3955C18.0727 11.3117 18.0727 11.207 18.0727 11.1232C18.4717 10.8508 18.8287 10.4946 19.1016 10.0756Z" fill="white"/>
<path d="M61.7118 12.7904C61.7118 19.472 56.2828 24.8904 49.5834 24.8904C42.8841 24.8904 37.4551 19.472 37.4551 12.7904C37.4551 6.10884 42.8841 0.69043 49.5834 0.69043C56.2828 0.69043 61.7118 6.10884 61.7118 12.7904Z" fill="#1E293B" stroke="white"/>
<path d="M50.1838 13.4661V18.2142H48.6677V13.4661V13.2161H48.4177H46.9819V11.7682H48.4177H48.6677V11.5182V10.0816C48.6677 9.29997 48.9058 8.72583 49.2898 8.3471C49.6747 7.96754 50.234 7.75684 50.9287 7.75684C51.4471 7.75684 51.9102 7.78526 52.1851 7.80907V9.07587L51.4013 9.07623C51.4013 9.07623 51.4013 9.07623 51.4012 9.07623C50.9628 9.07624 50.6316 9.17985 50.4225 9.42766C50.2214 9.66599 50.1838 9.98176 50.1838 10.2745V11.5182V11.7682H50.4338H52.0826L51.8955 13.2161H50.4338H50.1838V13.4661Z" fill="white" stroke="white" stroke-width="0.5"/>
<ellipse cx="85.666" cy="12.7904" rx="12.6284" ry="12.6" fill="#1E293B"/>
<path d="M85.6676 7.7934C87.2991 7.7934 87.4923 7.7995 88.1369 7.82882C88.5244 7.83356 88.9082 7.90455 89.2717 8.03873C89.5352 8.14015 89.7746 8.29552 89.9744 8.49482C90.1741 8.69413 90.3298 8.93297 90.4315 9.19595C90.566 9.5586 90.6371 9.94157 90.6419 10.3282C90.671 10.9713 90.6774 11.164 90.6774 12.7919C90.6774 14.4197 90.6713 14.6125 90.6419 15.2556C90.6371 15.6422 90.566 16.0252 90.4315 16.3878C90.3298 16.6508 90.1741 16.8896 89.9744 17.089C89.7746 17.2883 89.5352 17.4436 89.2717 17.545C88.9082 17.6792 88.5244 17.7502 88.1369 17.755C87.4926 17.784 87.2994 17.7904 85.6676 17.7904C84.0358 17.7904 83.8426 17.7843 83.1984 17.755C82.8109 17.7502 82.4271 17.6792 82.0636 17.545C81.8 17.4436 81.5606 17.2883 81.3609 17.089C81.1611 16.8896 81.0054 16.6508 80.9038 16.3878C80.7693 16.0252 80.6981 15.6422 80.6934 15.2556C80.6643 14.6125 80.6579 14.4197 80.6579 12.7919C80.6579 11.164 80.664 10.9713 80.6934 10.3282C80.6981 9.94157 80.7693 9.5586 80.9038 9.19595C81.0054 8.93297 81.1611 8.69413 81.3609 8.49482C81.5606 8.29552 81.8 8.14015 82.0636 8.03873C82.4271 7.90455 82.8109 7.83356 83.1984 7.82882C83.8429 7.79979 84.0361 7.7934 85.6676 7.7934ZM85.6676 6.69482C84.0091 6.69482 83.8001 6.70179 83.1484 6.7314C82.6412 6.74147 82.1394 6.83728 81.6644 7.01476C81.2569 7.16795 80.8878 7.40802 80.5828 7.71821C80.2717 8.02258 80.0308 8.39106 79.8772 8.79792C79.6993 9.2719 79.6033 9.77255 79.5932 10.2786C79.5641 10.9283 79.5571 11.1368 79.5571 12.7916C79.5571 14.4464 79.5641 14.6549 79.5938 15.3052C79.6039 15.8112 79.6999 16.3119 79.8778 16.7859C80.0312 17.1927 80.2719 17.5611 80.5828 17.8656C80.8879 18.1758 81.2572 18.4159 81.665 18.569C82.14 18.7465 82.6418 18.8423 83.1489 18.8524C83.8007 18.8814 84.0088 18.889 85.6682 18.889C87.3277 18.889 87.5357 18.882 88.1875 18.8524C88.6946 18.8423 89.1964 18.7465 89.6715 18.569C90.0773 18.4121 90.4457 18.1724 90.7534 17.8652C91.061 17.5581 91.301 17.1903 91.4581 16.7853C91.6359 16.3113 91.732 15.8106 91.7421 15.3046C91.7711 14.6549 91.7781 14.4464 91.7781 12.7916C91.7781 11.1368 91.7711 10.9283 91.7415 10.278C91.7314 9.77197 91.6354 9.27132 91.4575 8.79734C91.304 8.39053 91.0634 8.02205 90.7524 7.71763C90.4473 7.40737 90.078 7.1673 89.6703 7.01418C89.1953 6.8367 88.6935 6.74089 88.1863 6.73082C87.5351 6.70179 87.3262 6.69482 85.6676 6.69482Z" fill="white"/>
<path d="M85.6691 9.66211C85.0485 9.66211 84.4418 9.84573 83.9258 10.1898C83.4098 10.5338 83.0076 11.0227 82.7701 11.5948C82.5326 12.1669 82.4705 12.7964 82.5915 13.4037C82.7126 14.0111 83.0115 14.5689 83.4503 15.0068C83.8892 15.4446 84.4483 15.7428 85.057 15.8636C85.6657 15.9844 86.2966 15.9224 86.87 15.6855C87.4433 15.4485 87.9334 15.0472 88.2782 14.5323C88.623 14.0175 88.807 13.4122 88.807 12.7929C88.807 11.9626 88.4764 11.1663 87.888 10.5791C87.2995 9.99196 86.5014 9.66211 85.6691 9.66211ZM85.6691 14.8252C85.2663 14.8252 84.8725 14.706 84.5375 14.4827C84.2026 14.2594 83.9415 13.942 83.7874 13.5707C83.6332 13.1993 83.5929 12.7907 83.6714 12.3965C83.75 12.0023 83.944 11.6401 84.2289 11.3559C84.5137 11.0717 84.8767 10.8782 85.2718 10.7997C85.6669 10.7213 86.0764 10.7616 86.4486 10.9154C86.8208 11.0692 87.1389 11.3297 87.3627 11.6639C87.5865 11.9981 87.706 12.391 87.706 12.7929C87.706 13.3319 87.4914 13.8488 87.1094 14.23C86.7274 14.6111 86.2093 14.8252 85.6691 14.8252Z" fill="white"/>
<path d="M88.93 10.2689C89.335 10.2689 89.6633 9.94134 89.6633 9.53728C89.6633 9.13322 89.335 8.80566 88.93 8.80566C88.5251 8.80566 88.1968 9.13322 88.1968 9.53728C88.1968 9.94134 88.5251 10.2689 88.93 10.2689Z" fill="white"/>
<ellipse cx="121.748" cy="12.7904" rx="12.6284" ry="12.6" fill="#1E293B"/>
<path fill-rule="evenodd" clip-rule="evenodd" d="M122.296 6.69482C119.057 6.69482 116.451 9.29488 116.451 12.5267C116.451 15.1025 118.132 17.2895 120.445 18.067C120.738 18.1156 120.835 17.9455 120.835 17.7754C120.835 17.6297 120.835 17.2652 120.835 16.7792C119.203 17.1437 118.862 16.0016 118.862 16.0016C118.594 15.3212 118.205 15.1511 118.205 15.1511C117.669 14.7866 118.253 14.7866 118.253 14.7866C118.838 14.8352 119.155 15.3941 119.155 15.3941C119.666 16.2932 120.518 16.0259 120.859 15.8801C120.908 15.4913 121.054 15.2483 121.225 15.1025C119.934 14.9567 118.57 14.4464 118.57 12.2108C118.57 11.579 118.789 11.0445 119.179 10.6557C119.13 10.5099 118.911 9.92667 119.228 9.10049C119.228 9.10049 119.715 8.95469 120.835 9.70798C121.298 9.58648 121.809 9.51358 122.296 9.51358C122.783 9.51358 123.295 9.58648 123.757 9.70798C124.878 8.95469 125.365 9.10049 125.365 9.10049C125.681 9.90237 125.487 10.4856 125.414 10.6557C125.779 11.0688 126.022 11.579 126.022 12.2108C126.022 14.4464 124.659 14.9324 123.343 15.0782C123.563 15.2483 123.733 15.6128 123.733 16.1474C123.733 16.925 123.733 17.5568 123.733 17.7511C123.733 17.8969 123.831 18.0913 124.147 18.0427C126.461 17.2895 128.141 15.1025 128.141 12.5267C128.141 9.29488 125.535 6.69482 122.296 6.69482Z" fill="white"/>
</svg>
