<svg width="81" height="80" viewBox="0 0 81 80" fill="none" xmlns="http://www.w3.org/2000/svg">
<circle cx="40.5" cy="40" r="40" fill="#007AFF"/>
<g clip-path="url(#clip0_1_406)">
<path d="M40.7001 21.3188C29.3714 21.3188 20.1626 30.5275 20.1626 41.8563V45.553C20.1626 49.1305 22.7066 52.1117 26.0721 52.814C27.4368 56.524 31.0143 59.0813 35.0688 59.0813H40.7001C41.7999 59.0813 42.6876 58.1935 42.6876 57.0938C42.6876 56.0072 41.7999 55.1063 40.7001 55.1063H35.0688C33.3066 55.1063 31.7166 54.2848 30.6698 52.973H31.1999C32.2996 52.973 33.1874 52.0852 33.1874 50.9855V40.1205C33.1874 39.0207 32.2996 38.133 31.1999 38.133H27.5826C26.4563 38.133 25.3831 38.398 24.4291 38.8485C25.8468 31.1502 32.5911 25.2938 40.7001 25.2938C48.8091 25.2938 55.5534 31.1502 56.9711 38.8485C56.0171 38.398 54.9439 38.133 53.8176 38.133H50.2003C49.1006 38.133 48.2128 39.0207 48.2128 40.1205V50.9855C48.2128 52.0852 49.1006 52.973 50.2003 52.973H53.8176C57.9118 52.973 61.2376 49.6473 61.2376 45.553V41.8563C61.2376 30.5275 52.0288 21.3188 40.7001 21.3188Z" fill="white"/>
</g>
<defs>
<clipPath id="clip0_1_406">
<rect width="42.4" height="42.4" fill="white" transform="translate(19.5 19)"/>
</clipPath>
</defs>
</svg>
